Coordinates
version=1
nRows=11
nColumns=36
inDegrees=yes

Units are S.I. units (second, meters, Newtons, ...)
If the header above contains a line with 'inDegrees', this indicates whether rotational values are in degrees (yes) or radians (no).

endheader
time	pelvis_tilt	pelvis_list	pelvis_rotation	pelvis_tx	pelvis_ty	pelvis_tz	hip_flexion_r	hip_adduction_r	hip_rotation_r	knee_angle_r	knee_angle_r_beta	ankle_angle_r	subtalar_angle_r	mtp_angle_r	hip_flexion_l	hip_adduction_l	hip_rotation_l	knee_angle_l	knee_angle_l_beta	ankle_angle_l	subtalar_angle_l	mtp_angle_l	lumbar_extension	lumbar_bending	lumbar_rotation	arm_flex_r	arm_add_r	arm_rot_r	elbow_flex_r	pro_sup_r	arm_flex_l	arm_add_l	arm_rot_l	elbow_flex_l	pro_sup_l
      2.40000000	      2.38206712	     17.85523209	     16.97178153	      0.46130420	      0.84630673	      0.04096030	     57.66356728	    -30.96644291	      7.79545942	     33.42088643	      0.58330451	      5.68236232	     22.18008849	     -7.49999987	     40.08947291	     22.29277254	    -10.16216098	     72.10069538	      1.25839453	     46.11216327	      4.41748812	     -7.49999987	    -53.58487302	    -11.14010269	    -17.25564779	     50.96408009	     -0.67767800	     61.17056071	    115.37854803	     85.61615967	     61.08840987	    -16.29367532	     69.94627344	    127.68400507	     86.26834146
      2.41666670	      2.88319342	     17.96729752	     16.73977897	      0.46186134	      0.85500175	      0.04138939	     56.94333441	    -30.90833853	      7.56672715	     33.02107297	      0.57632645	      5.54711010	     22.41687515	     -7.49999987	     39.18685936	     22.29990723	     -9.90940305	     71.53377785	      1.24849995	     45.88672036	      4.42200033	     -7.49999987	    -53.60195146	    -11.32892945	    -17.51760445	     50.99710595	     -0.35272872	     60.30191444	    115.22920564	     86.05181841	     61.04101910	    -16.76717865	     69.73245808	    127.13437619	     86.05212399
      2.43333330	      3.72428062	     18.06590445	     16.41665717	      0.46281209	      0.86433966	      0.04221377	     55.63300342	    -30.82204902	      7.00492304	     32.27706984	      0.56334114	      5.30938174	     22.82262266	     -7.49999987	     37.73797528	     22.21721353	     -9.56517592	     70.72882502	      1.23445087	     45.73752222	      4.72563748	     -7.49999987	    -54.09886744	    -11.35707517	    -17.77474441	     50.81413844	     -0.26950658	     59.83377010	    114.99394270	     84.37065598	     60.97386387	    -17.57264787	     70.21900095	    126.84950326	     84.17247474
      2.45000000	      4.75594077	     18.10723266	     15.80514613	      0.47474227	      0.86769156	      0.04331614	     53.99972663	    -30.47923874	      6.54024570	     31.40415876	      0.54810597	      5.40586258	     23.29811412	     -7.49999987	     35.94213307	     22.04556176	     -9.13791675	     69.86110210	      1.21930625	     45.76887609	      5.10288776	     -7.49999987	    -54.09155148	    -11.68856728	    -17.61314901	     49.44501982	      0.28102591	     60.63130238	    115.36439067	     85.59294132	     60.01362407	    -17.43250198	     70.47934392	    128.36284276	     84.90729961
      2.46666670	      5.35282393	     18.30184322	     15.23019087	      0.47495026	      0.87387706	      0.04423931	     53.18550329	    -30.10400754	      6.86928123	     30.84986781	      0.53843177	      5.50038671	     23.44679004	     -7.49999987	     34.61460062	     21.96822142	     -9.09710660	     68.96615789	      1.20368653	     45.75279985	      5.53670087	     -7.49999987	    -53.82942375	    -12.35714506	    -17.55805485	     48.61015273	      0.66485619	     60.28696110	    115.64677887	     85.96495510	     59.17488413	    -17.39856019	     70.70932647	    129.32193594	     85.19985682
      2.48333330	      5.85564651	     18.36815787	     14.83167018	      0.46853031	      0.87417742	      0.04716121	     52.67594795	    -29.70355366	      7.26242659	     30.68218251	      0.53550511	      5.52429367	     23.19681090	     -7.49999987	     33.73538230	     21.82465101	     -9.03252057	     68.42784318	      1.19429116	     45.57626346	      5.56638955	     -7.49999987	    -53.17932527	    -13.00419687	    -17.79544812	     48.69167901	      1.28083815	     59.24311634	    115.76139731	     86.22698958	     59.39860247	    -17.56726576	     70.09435572	    129.10704034	     85.30407703
      2.50000000	      6.22572143	     18.36212505	     14.43107817	      0.48078422	      0.88166825	      0.04801911	     52.06215503	    -29.30692974	      7.46199834	     30.20700287	      0.52721166	      5.67715158	     23.16932482	     -7.49999987	     32.74800790	     21.71771271	     -8.78906111	     67.78133857	      1.18300753	     45.45419035	      5.60466910	     -7.49999987	    -52.30981388	    -13.68710938	    -17.70349447	     47.78167210	      1.36511711	     59.15273794	    115.83145664	     86.30909961	     58.70423130	    -18.04369690	     70.05572864	    128.97843511	     85.33466669
      2.51666670	      7.68235268	     18.37688446	     13.63316897	      0.47959403	      0.88690892	      0.04847187	     50.30030516	    -28.69564943	      7.64278382	     29.80671967	      0.52022540	      5.69977755	     22.72691970	     -7.49999987	     30.63196358	     21.37071848	     -8.51778200	     67.02384968	      1.16978685	     45.36062547	      5.70500501	     -7.49999987	    -52.44498352	    -14.10026184	    -17.49645261	     47.43109858	      1.83765092	     58.40418805	    115.31293852	     88.74548674	     58.20969939	    -18.07098075	     68.67749125	    129.45525010	     86.23448809
      2.53333330	      9.08832553	     18.37495701	     12.98633148	      0.47909351	      0.89895382	      0.04874583	     48.45254097	    -28.24943393	      7.62151313	     29.25391492	      0.51057713	      5.58796881	     22.53871787	     -7.49999987	     28.46148599	     21.20840332	     -8.07642212	     65.98131105	      1.15159112	     45.21997726	      5.81817971	     -7.49999987	    -52.60043999	    -14.48936608	    -17.13459397	     47.39299647	      1.79323745	     57.83248384	    114.89155991	     88.95067646	     57.48400418	    -18.07361329	     67.85818249	    128.91195469	     86.70100818
      2.55000000	     10.07664888	     18.19140222	     12.37702338	      0.48437710	      0.90422040	      0.05193834	     47.08789186	    -27.61693463	      7.75032498	     28.69296064	      0.50078664	      5.43472392	     22.22907017	     -7.49999987	     26.66129673	     20.93218584	     -7.59700676	     64.93987426	      1.13341462	     45.00073327	      5.90463641	     -7.49999987	    -52.01457591	    -15.09067398	    -16.79923477	     47.06105804	      2.15541784	     57.02795276	    114.48509729	     88.85926414	     57.13328384	    -18.37679338	     67.43543643	    128.15520120	     86.63774268
      2.56666670	     11.38446220	     18.05918462	     11.71703016	      0.48988108	      0.91758094	      0.05044690	     44.88552077	    -27.11369017	      7.37581141	     27.61624886	      0.48199447	      5.33973707	     22.25674819	     -7.49999987	     24.07570985	     20.71542152	     -6.89823171	     63.41555125	      1.10681017	     44.83769574	      6.25001192	     -7.49999987	    -52.08889244	    -15.35175486	    -16.35208049	     46.54125876	      2.13859231	     57.34587559	    114.34193029	     87.87695365	     56.73582956	    -18.07765700	     67.37494412	    128.42964751	     86.00288811
